<svg height="718" width="720" xmlns="http://www.w3.org/2000/svg">
<rect height="718" fill="#555" width="720"></rect>
<text fill="#7f7" font-family="Courier New" font-size="12" xml:space="preserve">
<tspan x="10" y="26">4 megabytes installed</tspan>
<tspan x="10" y="42"></tspan>
<tspan x="10" y="58">node_modules</tspan>
<tspan x="10" y="74">└─┬ workshopper@2.7.0 </tspan>
<tspan x="10" y="90">  ├─┬ chalk@0.4.0 </tspan>
<tspan x="10" y="106">  │ ├── ansi-styles@1.0.0 </tspan>
<tspan x="10" y="122">  │ ├── has-color@0.1.7 </tspan>
<tspan x="10" y="138">  │ └── strip-ansi@0.1.1 </tspan>
<tspan x="10" y="154">  ├─┬ colors-tmpl@0.1.1 </tspan>
<tspan x="10" y="170">  │ └── colors@0.6.2 </tspan>
<tspan x="10" y="186">  ├─┬ i18n-core@1.3.3 </tspan>
<tspan x="10" y="202">  │ ├── mustache@0.8.2 </tspan>
<tspan x="10" y="218">  │ └── sprintf@0.1.5 </tspan>
<tspan x="10" y="234">  ├── map-async@0.1.1 </tspan>
<tspan x="10" y="250">  ├── mkdirp@0.3.5 </tspan>
<tspan x="10" y="266">  ├─┬ msee@0.1.2 </tspan>
<tspan x="10" y="282">  │ ├─┬ cardinal@0.5.0 </tspan>
<tspan x="10" y="298">  │ │ ├── ansicolors@0.2.1 </tspan>
<tspan x="10" y="314">  │ │ └─┬ redeyed@0.5.0 </tspan>
<tspan x="10" y="330">  │ │   └── esprima-fb@12001.1.0-dev-harmony-fb </tspan>
<tspan x="10" y="346">  │ ├── marked@0.3.6 </tspan>
<tspan x="10" y="362">  │ ├─┬ nopt@2.1.2 </tspan>
<tspan x="10" y="378">  │ │ └── abbrev@1.1.0 </tspan>
<tspan x="10" y="394">  │ └─┬ xtend@2.1.2 </tspan>
<tspan x="10" y="410">  │   └── object-keys@0.4.0 </tspan>
<tspan x="10" y="426">  ├─┬ optimist@0.6.1 </tspan>
<tspan x="10" y="442">  │ ├── minimist@0.0.10 </tspan>
<tspan x="10" y="458">  │ └── wordwrap@0.0.3 </tspan>
<tspan x="10" y="474">  ├─┬ terminal-menu@2.1.1 </tspan>
<tspan x="10" y="490">  │ ├── charm@0.1.2 </tspan>
<tspan x="10" y="506">  │ ├─┬ duplexer2@0.0.2 </tspan>
<tspan x="10" y="522">  │ │ └─┬ readable-stream@1.1.14 </tspan>
<tspan x="10" y="538">  │ │   ├── core-util-is@1.0.2 </tspan>
<tspan x="10" y="554">  │ │   ├── isarray@0.0.1 </tspan>
<tspan x="10" y="570">  │ │   └── string_decoder@0.10.31 </tspan>
<tspan x="10" y="586">  │ ├── inherits@2.0.3 </tspan>
<tspan x="10" y="602">  │ ├─┬ resumer@0.0.0 </tspan>
<tspan x="10" y="618">  │ │ └── through@2.3.8 </tspan>
<tspan x="10" y="634">  │ └─┬ through2@0.6.5 </tspan>
<tspan x="10" y="650">  │   ├── readable-stream@1.0.34 </tspan>
<tspan x="10" y="666">  │   └── xtend@4.0.1 </tspan>
<tspan x="10" y="682">  ├── visualwidth@0.0.1 </tspan>
<tspan x="10" y="698">  └── xtend@3.0.0</tspan>
</text>
</svg>
